{"title":"Doctor Doctor - S01E01","uid":15858470,"size":1187379713,"categoryP":"video","categoryS":"tv_shows","magnet":"?xt=urn:btih:e784afba1baf50bd24697352497567739b536f30&amp;dn=Doctor+Doctor+-+S01E01&amp;tr=udp%3A%2F%2Ftracker.leechers-paradise.org%3A6969&amp;tr=udp%3A%2F%2Fzer0day.ch%3A1337&amp;tr=udp%3A%2F%2Fopen.demonii.com%3A1337&amp;tr=udp%3A%2F%2Ftracker.coppersurfer.tk%3A6969&amp;tr=udp%3A%2F%2Fexodus.desync.com%3A6969","seeders":5,"leechers":2,"uploader":"Bullrout","files":1,"time":1474270236,"description":"Doctor Doctor - S01E01\r\n\r\nAfter a spectacular fall from grace, high-flying heart surgeon Dr Hugh Knight is forced to work as a country GP in his former home town of Whyhope. Meanwhile, his ex-girlfriend vows to send him packing.\r\n\r\nComplete name : Doctor Doctor - S01E01.mkv\r\nFormat : Matroska\r\nFormat version : Version 4 / Version 2\r\nFile size : 1.11 GiB\r\nDuration : 47 min 35 s\r\nOverall bit rate mode : Variable\r\nOverall bit rate : 3 327 kb/s\r\nEncoded date : UTC 2016-09-19 03:37:15\r\nWriting application : mkvmerge v9.4.2 ('So High') 64bit\r\nWriting library : libebml v1.3.4 + libmatroska v1.4.5\r\n\r\nVideo\r\nID : 2\r\nFormat : AVC\r\nFormat/Info : Advanced Video Codec\r\nFormat profile :   \r\nFormat settings, CABAC : Yes\r\nFormat settings, ReFrames : 3 frames\r\nCodec ID : V_MPEG4/ISO/AVC\r\nDuration : 47 min 35 s\r\nBit rate mode : Variable\r\nBit rate : 2 941 kb/s\r\nMaximum bit rate : 3 000 kb/s\r\nWidth : 1 280 pixels\r\nHeight : 720 pixels\r\nDisplay aspect ratio : 16:9\r\nFrame rate mode : Constant\r\nFrame rate : 25.000 FPS\r\nStandard : PAL\r\nColor space : YUV\r\nChroma subsampling : 4:2:0\r\nBit depth : 8 bits\r\nScan type : Progressive\r\nBits/(Pixel*Frame) : 0.128\r\nStream size : 1 001 MiB (88%)\r\nWriting library : x264 core 112\r\nDefault : Yes\r\nForced : No\r\nColor range : Limited\r\nColor primaries : BT.709\r\nTransfer characteristics : BT.709\r\nMatrix coefficients : BT.709\r\n\r\nAudio\r\nID : 1\r\nFormat : AC-3\r\nFormat/Info : Audio Coding 3\r\nMode extension : CM (complete main)\r\nFormat settings, Endianness : Big\r\nCodec ID : A_AC3\r\nDuration : 47 min 35 s\r\nBit rate mode : Constant\r\nBit rate : 384 kb/s\r\nChannel(s) : 6 channels\r\nChannel positions : Front: L C R, Side: L R, LFE\r\nSampling rate : 48.0 kHz\r\nFrame rate : 31.250 FPS (1536 spf)\r\nCompression mode : Lossy\r\nStream size : 131 MiB (12%)\r\nDefault : Yes\r\nForced : No","torrent":{"xt":"urn:btih:e784afba1baf50bd24697352497567739b536f30","amp;dn":"Doctor+Doctor+-+S01E01","amp;tr":["udp%3A%2F%2Ftracker.leechers-paradise.org%3A6969","udp%3A%2F%2Fzer0day.ch%3A1337","udp%3A%2F%2Fopen.demonii.com%3A1337","udp%3A%2F%2Ftracker.coppersurfer.tk%3A6969","udp%3A%2F%2Fexodus.desync.com%3A6969"],"infoHash":"e784afba1baf50bd24697352497567739b536f30","infoHashBuffer":{"type":"Buffer","data":[231,132,175,186,27,175,80,189,36,105,115,82,73,117,103,115,155,83,111,48]},"announce":[],"urlList":[]}}